<mxfile host="app.diagrams.net" agent="Mozilla/5.0 (Windows NT 10.0; Win64; x64) AppleWebKit/537.36 (KHTML, like Gecko) Chrome/134.0.0.0 YaBrowser/25.4.0.0 Safari/537.36" version="27.0.5">
  <diagram name="Страница — 1" id="_2JPGk_i4GorrXLCRIJI">
    <mxGraphModel dx="1426" dy="802" grid="1" gridSize="10" guides="1" tooltips="1" connect="1" arrows="1" fold="1" page="1" pageScale="1" pageWidth="827" pageHeight="1169" math="0" shadow="0">
      <root>
        <mxCell id="0" />
        <mxCell id="1" parent="0" />
        <mxCell id="uiXFnctd4h0FqHwM25fx-9" style="edgeStyle=orthogonalEdgeStyle;rounded=0;orthogonalLoop=1;jettySize=auto;html=1;exitX=1;exitY=0.5;exitDx=0;exitDy=0;entryX=0;entryY=0.5;entryDx=0;entryDy=0;" edge="1" parent="1" source="uiXFnctd4h0FqHwM25fx-1" target="uiXFnctd4h0FqHwM25fx-2">
          <mxGeometry relative="1" as="geometry" />
        </mxCell>
        <mxCell id="uiXFnctd4h0FqHwM25fx-1" value="a0/y0" style="ellipse;whiteSpace=wrap;html=1;aspect=fixed;" vertex="1" parent="1">
          <mxGeometry x="170" y="170" width="60" height="60" as="geometry" />
        </mxCell>
        <mxCell id="uiXFnctd4h0FqHwM25fx-12" style="edgeStyle=orthogonalEdgeStyle;rounded=0;orthogonalLoop=1;jettySize=auto;html=1;exitX=1;exitY=0.5;exitDx=0;exitDy=0;entryX=0;entryY=0.5;entryDx=0;entryDy=0;" edge="1" parent="1" source="uiXFnctd4h0FqHwM25fx-2" target="uiXFnctd4h0FqHwM25fx-3">
          <mxGeometry relative="1" as="geometry" />
        </mxCell>
        <mxCell id="uiXFnctd4h0FqHwM25fx-15" style="edgeStyle=orthogonalEdgeStyle;rounded=0;orthogonalLoop=1;jettySize=auto;html=1;exitX=0.5;exitY=1;exitDx=0;exitDy=0;entryX=0.5;entryY=0;entryDx=0;entryDy=0;" edge="1" parent="1" source="uiXFnctd4h0FqHwM25fx-2" target="uiXFnctd4h0FqHwM25fx-7">
          <mxGeometry relative="1" as="geometry" />
        </mxCell>
        <mxCell id="uiXFnctd4h0FqHwM25fx-17" style="edgeStyle=orthogonalEdgeStyle;rounded=0;orthogonalLoop=1;jettySize=auto;html=1;exitX=0.5;exitY=0;exitDx=0;exitDy=0;entryX=0.5;entryY=1;entryDx=0;entryDy=0;" edge="1" parent="1" source="uiXFnctd4h0FqHwM25fx-2" target="uiXFnctd4h0FqHwM25fx-5">
          <mxGeometry relative="1" as="geometry" />
        </mxCell>
        <mxCell id="uiXFnctd4h0FqHwM25fx-2" value="a1/y1" style="ellipse;whiteSpace=wrap;html=1;aspect=fixed;" vertex="1" parent="1">
          <mxGeometry x="280" y="170" width="60" height="60" as="geometry" />
        </mxCell>
        <mxCell id="uiXFnctd4h0FqHwM25fx-19" style="edgeStyle=orthogonalEdgeStyle;rounded=0;orthogonalLoop=1;jettySize=auto;html=1;exitX=0.5;exitY=1;exitDx=0;exitDy=0;entryX=0.5;entryY=0;entryDx=0;entryDy=0;" edge="1" parent="1" source="uiXFnctd4h0FqHwM25fx-3" target="uiXFnctd4h0FqHwM25fx-4">
          <mxGeometry relative="1" as="geometry" />
        </mxCell>
        <mxCell id="uiXFnctd4h0FqHwM25fx-3" value="a2/y4" style="ellipse;whiteSpace=wrap;html=1;aspect=fixed;" vertex="1" parent="1">
          <mxGeometry x="420" y="170" width="60" height="60" as="geometry" />
        </mxCell>
        <mxCell id="uiXFnctd4h0FqHwM25fx-21" style="edgeStyle=orthogonalEdgeStyle;rounded=0;orthogonalLoop=1;jettySize=auto;html=1;exitX=0.5;exitY=1;exitDx=0;exitDy=0;entryX=0.5;entryY=0;entryDx=0;entryDy=0;" edge="1" parent="1" source="uiXFnctd4h0FqHwM25fx-4" target="uiXFnctd4h0FqHwM25fx-6">
          <mxGeometry relative="1" as="geometry" />
        </mxCell>
        <mxCell id="uiXFnctd4h0FqHwM25fx-25" style="edgeStyle=orthogonalEdgeStyle;rounded=0;orthogonalLoop=1;jettySize=auto;html=1;exitX=1;exitY=0.5;exitDx=0;exitDy=0;entryX=1;entryY=0.5;entryDx=0;entryDy=0;" edge="1" parent="1" source="uiXFnctd4h0FqHwM25fx-4" target="uiXFnctd4h0FqHwM25fx-5">
          <mxGeometry relative="1" as="geometry" />
        </mxCell>
        <mxCell id="uiXFnctd4h0FqHwM25fx-4" value="a3/y5" style="ellipse;whiteSpace=wrap;html=1;aspect=fixed;" vertex="1" parent="1">
          <mxGeometry x="420" y="263" width="60" height="60" as="geometry" />
        </mxCell>
        <mxCell id="uiXFnctd4h0FqHwM25fx-32" style="edgeStyle=orthogonalEdgeStyle;rounded=0;orthogonalLoop=1;jettySize=auto;html=1;exitX=0;exitY=0.5;exitDx=0;exitDy=0;entryX=0.5;entryY=0;entryDx=0;entryDy=0;" edge="1" parent="1" source="uiXFnctd4h0FqHwM25fx-5" target="uiXFnctd4h0FqHwM25fx-1">
          <mxGeometry relative="1" as="geometry" />
        </mxCell>
        <mxCell id="uiXFnctd4h0FqHwM25fx-5" value="a4/y3" style="ellipse;whiteSpace=wrap;html=1;aspect=fixed;" vertex="1" parent="1">
          <mxGeometry x="280" y="60" width="60" height="60" as="geometry" />
        </mxCell>
        <mxCell id="uiXFnctd4h0FqHwM25fx-34" style="edgeStyle=orthogonalEdgeStyle;rounded=0;orthogonalLoop=1;jettySize=auto;html=1;exitX=0.5;exitY=1;exitDx=0;exitDy=0;entryX=0.5;entryY=1;entryDx=0;entryDy=0;" edge="1" parent="1" source="uiXFnctd4h0FqHwM25fx-6" target="uiXFnctd4h0FqHwM25fx-1">
          <mxGeometry relative="1" as="geometry" />
        </mxCell>
        <mxCell id="uiXFnctd4h0FqHwM25fx-6" value="a5/y6" style="ellipse;whiteSpace=wrap;html=1;aspect=fixed;" vertex="1" parent="1">
          <mxGeometry x="420" y="360" width="60" height="60" as="geometry" />
        </mxCell>
        <mxCell id="uiXFnctd4h0FqHwM25fx-7" value="a6/y2" style="ellipse;whiteSpace=wrap;html=1;aspect=fixed;" vertex="1" parent="1">
          <mxGeometry x="280" y="370" width="60" height="60" as="geometry" />
        </mxCell>
        <mxCell id="uiXFnctd4h0FqHwM25fx-10" value="1" style="text;html=1;align=center;verticalAlign=middle;resizable=0;points=[];autosize=1;strokeColor=none;fillColor=none;" vertex="1" parent="1">
          <mxGeometry x="240" y="170" width="30" height="30" as="geometry" />
        </mxCell>
        <mxCell id="uiXFnctd4h0FqHwM25fx-14" value="x1(not x2)" style="text;html=1;align=center;verticalAlign=middle;resizable=0;points=[];autosize=1;strokeColor=none;fillColor=none;" vertex="1" parent="1">
          <mxGeometry x="330" y="168" width="80" height="30" as="geometry" />
        </mxCell>
        <mxCell id="uiXFnctd4h0FqHwM25fx-16" value="not x1" style="text;html=1;align=center;verticalAlign=middle;resizable=0;points=[];autosize=1;strokeColor=none;fillColor=none;" vertex="1" parent="1">
          <mxGeometry x="300" y="278" width="60" height="30" as="geometry" />
        </mxCell>
        <mxCell id="uiXFnctd4h0FqHwM25fx-18" value="x1x2" style="text;html=1;align=center;verticalAlign=middle;resizable=0;points=[];autosize=1;strokeColor=none;fillColor=none;" vertex="1" parent="1">
          <mxGeometry x="305" y="128" width="50" height="30" as="geometry" />
        </mxCell>
        <mxCell id="uiXFnctd4h0FqHwM25fx-20" value="1" style="text;html=1;align=center;verticalAlign=middle;resizable=0;points=[];autosize=1;strokeColor=none;fillColor=none;" vertex="1" parent="1">
          <mxGeometry x="445" y="228" width="30" height="30" as="geometry" />
        </mxCell>
        <mxCell id="uiXFnctd4h0FqHwM25fx-22" value="x3" style="text;html=1;align=center;verticalAlign=middle;resizable=0;points=[];autosize=1;strokeColor=none;fillColor=none;" vertex="1" parent="1">
          <mxGeometry x="445" y="323" width="40" height="30" as="geometry" />
        </mxCell>
        <mxCell id="uiXFnctd4h0FqHwM25fx-23" style="edgeStyle=orthogonalEdgeStyle;rounded=0;orthogonalLoop=1;jettySize=auto;html=1;exitX=0;exitY=1;exitDx=0;exitDy=0;entryX=0.983;entryY=0.367;entryDx=0;entryDy=0;entryPerimeter=0;" edge="1" parent="1" source="uiXFnctd4h0FqHwM25fx-4" target="uiXFnctd4h0FqHwM25fx-7">
          <mxGeometry relative="1" as="geometry" />
        </mxCell>
        <mxCell id="uiXFnctd4h0FqHwM25fx-24" value="not(x3x1)" style="text;html=1;align=center;verticalAlign=middle;resizable=0;points=[];autosize=1;strokeColor=none;fillColor=none;" vertex="1" parent="1">
          <mxGeometry x="315" y="338" width="70" height="30" as="geometry" />
        </mxCell>
        <mxCell id="uiXFnctd4h0FqHwM25fx-26" value="not(x3)x1x2" style="text;html=1;align=center;verticalAlign=middle;resizable=0;points=[];autosize=1;strokeColor=none;fillColor=none;" vertex="1" parent="1">
          <mxGeometry x="500" y="158" width="90" height="30" as="geometry" />
        </mxCell>
        <mxCell id="uiXFnctd4h0FqHwM25fx-30" value="" style="endArrow=classic;html=1;rounded=0;exitX=0;exitY=0.5;exitDx=0;exitDy=0;entryX=0;entryY=1;entryDx=0;entryDy=0;" edge="1" parent="1" source="uiXFnctd4h0FqHwM25fx-4" target="uiXFnctd4h0FqHwM25fx-3">
          <mxGeometry width="50" height="50" relative="1" as="geometry">
            <mxPoint x="370" y="440" as="sourcePoint" />
            <mxPoint x="420" y="390" as="targetPoint" />
            <Array as="points">
              <mxPoint x="380" y="293" />
            </Array>
          </mxGeometry>
        </mxCell>
        <mxCell id="uiXFnctd4h0FqHwM25fx-31" value="not(x3)x1not(x2)" style="text;html=1;align=center;verticalAlign=middle;resizable=0;points=[];autosize=1;strokeColor=none;fillColor=none;" vertex="1" parent="1">
          <mxGeometry x="315" y="228" width="110" height="30" as="geometry" />
        </mxCell>
        <mxCell id="uiXFnctd4h0FqHwM25fx-33" value="1" style="text;html=1;align=center;verticalAlign=middle;resizable=0;points=[];autosize=1;strokeColor=none;fillColor=none;" vertex="1" parent="1">
          <mxGeometry x="155" y="98" width="30" height="30" as="geometry" />
        </mxCell>
        <mxCell id="uiXFnctd4h0FqHwM25fx-35" value="1" style="text;html=1;align=center;verticalAlign=middle;resizable=0;points=[];autosize=1;strokeColor=none;fillColor=none;" vertex="1" parent="1">
          <mxGeometry x="165" y="318" width="30" height="30" as="geometry" />
        </mxCell>
      </root>
    </mxGraphModel>
  </diagram>
</mxfile>
